M48
; DRILL file {KiCad 5.1.10} date Fri Aug  6 05:27:31 2021
; FORMAT={-:-/ absolute / inch / decimal}
; #@! TF.CreationDate,2021-08-06T05:27:31+01:00
; #@! TF.GenerationSoftware,Kicad,Pcbnew,5.1.10
; #@! TF.FileFunction,Plated,1,2,PTH
FMAT,2
INCH
T1C0.0157
T2C0.0320
T3C0.0500
T4C0.0512
T5C0.0866
%
G90
G05
T1
X2.02Y-2.33
X2.06Y-2.4
X2.13Y-3.25
T2
X1.2664Y-2.28
X1.2664Y-2.38
X1.2664Y-2.48
X1.2664Y-2.58
X1.2664Y-2.68
X1.2664Y-2.78
X1.2664Y-2.88
X1.2664Y-2.98
X1.2664Y-3.08
X1.2664Y-3.18
X1.2664Y-3.28
X1.2664Y-3.38
X1.496Y-2.19
X1.63Y-2.19
X1.78Y-3.19
X1.78Y-3.29
X1.8656Y-2.28
X1.8656Y-2.38
X1.8656Y-2.48
X1.8656Y-2.58
X1.8656Y-2.68
X1.8656Y-2.78
X1.8656Y-2.88
X1.8656Y-2.98
X1.8656Y-3.08
X1.8656Y-3.18
X1.8656Y-3.28
X1.8656Y-3.38
T3
X1.3895Y-3.9996
X1.5864Y-4.0823
X1.7832Y-3.9996
X2.1346Y-4.0328
X2.1362Y-1.7663
X2.1362Y-2.4356
X2.1362Y-3.1049
X2.3121Y-4.1516
X2.3331Y-1.849
X2.3331Y-2.5183
X2.3331Y-3.1876
X2.5211Y-4.108
X2.5299Y-1.7663
X2.5299Y-2.4356
X2.5299Y-3.1049
X2.8449Y-1.6529
X2.8449Y-2.3222
X2.8449Y-2.9917
X3.0417Y-1.7356
X3.0417Y-2.4049
X3.0417Y-3.0744
X3.2386Y-1.6529
X3.2386Y-2.3222
X3.2386Y-2.9917
X3.5535Y-1.4025
X3.5535Y-2.0714
X3.5535Y-2.7407
X3.7504Y-1.4852
X3.7504Y-2.1541
X3.7504Y-2.8234
X3.9472Y-1.4025
X3.9472Y-2.0714
X3.9472Y-2.7407
X4.2657Y-2.9563
X4.3124Y-2.2884
X4.3591Y-1.6208
X4.4563Y-3.0525
X4.503Y-2.3846
X4.5497Y-1.717
X4.6585Y-2.9837
X4.7052Y-2.3159
X4.7519Y-1.6482
X4.8486Y-3.6206
X5.0173Y-3.7514
X5.0219Y-2.9739
X5.1906Y-3.1047
X5.1951Y-2.3274
X5.2289Y-3.7225
X5.3638Y-2.4582
X5.4022Y-3.0758
X5.5754Y-2.4293
T4
X2.37Y-1.17
X2.6259Y-1.17
T5
X3.4Y-1.1
X3.4Y-2.6
X4.15Y-1.85
T0
M30
