M48
; DRILL file {KiCad 5.1.10} date Thu Jun 10 13:23:13 2021
; FORMAT={-:-/ absolute / inch / decimal}
; #@! TF.CreationDate,2021-06-10T13:23:13+01:00
; #@! TF.GenerationSoftware,Kicad,Pcbnew,5.1.10
; #@! TF.FileFunction,NonPlated,1,2,NPTH
FMAT,2
INCH
T1C0.0354
T2C0.0390
T3C0.0670
T4C0.1350
%
G90
G05
T1
X3.0509Y-1.05
X3.1691Y-1.05
T2
X1.3809Y-3.6846
X1.7919Y-3.6846
X2.1276Y-1.4513
X2.1276Y-2.1206
X2.1276Y-2.7899
X2.1862Y-3.722
X2.5386Y-1.4513
X2.5386Y-2.1206
X2.5386Y-2.7899
X2.5897Y-3.8004
X2.8362Y-1.338
X2.8362Y-2.0072
X2.8362Y-2.6767
X3.2472Y-1.338
X3.2472Y-2.0072
X3.2472Y-2.6767
X3.5449Y-1.0876
X3.5449Y-1.7565
X3.5449Y-2.4257
X3.9559Y-1.0876
X3.9559Y-1.7565
X3.9559Y-2.4257
X4.2791Y-2.6415
X4.3258Y-1.9736
X4.3725Y-1.306
X4.6891Y-2.6702
X4.7358Y-2.0023
X4.7825Y-1.3346
X4.9217Y-3.3141
X5.095Y-2.6674
X5.2682Y-2.0209
X5.3188Y-3.4205
X5.492Y-2.7738
X5.6653Y-2.1273
T3
X1.3698Y-3.85
X1.8029Y-3.85
X2.1165Y-1.6167
X2.1165Y-2.286
X2.1165Y-2.9553
X2.1438Y-3.8822
X2.5496Y-1.6167
X2.5496Y-2.286
X2.5496Y-2.9553
X2.5689Y-3.9649
X2.8252Y-1.5033
X2.8252Y-2.1726
X2.8252Y-2.8421
X3.2583Y-1.5033
X3.2583Y-2.1726
X3.2583Y-2.8421
X3.5339Y-1.2529
X3.5339Y-1.9218
X3.5339Y-2.5911
X3.9669Y-1.2529
X3.9669Y-1.9218
X3.9669Y-2.5911
X4.2565Y-2.8057
X4.3032Y-2.1378
X4.3499Y-1.4702
X4.6886Y-2.8359
X4.7353Y-2.168
X4.7819Y-1.5004
X4.8683Y-3.471
X5.0416Y-2.8243
X5.2148Y-2.1778
X5.2866Y-3.583
X5.4599Y-2.9364
X5.6331Y-2.2899
T4
X1.5864Y-3.85
X2.3331Y-1.6167
X2.3331Y-2.286
X2.3331Y-2.9553
X2.3564Y-3.9235
X3.0417Y-1.5033
X3.0417Y-2.1726
X3.0417Y-2.8421
X3.7504Y-1.2529
X3.7504Y-1.9218
X3.7504Y-2.5911
X4.4725Y-2.8208
X4.5192Y-2.1529
X4.5659Y-1.4853
X5.0775Y-3.527
X5.2507Y-2.8803
X5.424Y-2.2338
T0
M30
