M48
; DRILL file {KiCad 5.1.10} date Mon Sep 20 14:55:39 2021
; FORMAT={-:-/ absolute / inch / decimal}
; #@! TF.CreationDate,2021-09-20T14:55:39+01:00
; #@! TF.GenerationSoftware,Kicad,Pcbnew,5.1.10
; #@! TF.FileFunction,NonPlated,1,2,NPTH
FMAT,2
INCH
T1C0.0354
T2C0.0670
T3C0.1350
%
G90
G05
T1
X3.0509Y-1.05
X3.1691Y-1.05
T2
X1.4204Y-3.807
X1.8468Y-3.8822
X2.1165Y-1.6167
X2.1165Y-2.286
X2.1165Y-2.9553
X2.1424Y-3.9492
X2.5496Y-1.6167
X2.5496Y-2.286
X2.5496Y-2.9553
X2.5607Y-4.0613
X2.8252Y-1.5033
X2.8252Y-2.1726
X2.8252Y-2.8421
X3.2583Y-1.5033
X3.2583Y-2.1726
X3.2583Y-2.8421
X3.5339Y-1.2529
X3.5339Y-1.9218
X3.5339Y-2.5911
X3.9669Y-1.2529
X3.9669Y-1.9218
X3.9669Y-2.5911
X4.2571Y-2.8347
X4.3239Y-2.1689
X4.3939Y-1.5033
X4.6878Y-2.88
X4.7546Y-2.2142
X4.8246Y-1.5486
X4.8629Y-3.4767
X5.059Y-2.8367
X5.2771Y-3.6033
X5.4731Y-2.9633
X5.7967Y-3.5171
X5.9233Y-3.1029
T3
X1.6336Y-3.8446
X2.3331Y-1.6167
X2.3331Y-2.286
X2.3331Y-2.9553
X2.3516Y-4.0053
X3.0417Y-1.5033
X3.0417Y-2.1726
X3.0417Y-2.8421
X3.7504Y-1.2529
X3.7504Y-1.9218
X3.7504Y-2.5911
X4.4724Y-2.8574
X4.5392Y-2.1916
X4.6092Y-1.5259
X5.07Y-3.54
X5.2661Y-2.9
X5.86Y-3.31
T0
M30
