G04 #@! TF.GenerationSoftware,KiCad,Pcbnew,5.1.10*
G04 #@! TF.CreationDate,2021-09-20T14:55:35+01:00*
G04 #@! TF.ProjectId,parergon,70617265-7267-46f6-9e2e-6b696361645f,0.1*
G04 #@! TF.SameCoordinates,Original*
G04 #@! TF.FileFunction,Soldermask,Top*
G04 #@! TF.FilePolarity,Negative*
%FSLAX46Y46*%
G04 Gerber Fmt 4.6, Leading zero omitted, Abs format (unit mm)*
G04 Created by KiCad (PCBNEW 5.1.10) date 2021-09-20 14:55:35*
%MOMM*%
%LPD*%
G01*
G04 APERTURE LIST*
%ADD10C,2.432000*%
%ADD11C,3.829000*%
%ADD12C,2.101800*%
%ADD13C,1.797000*%
%ADD14C,4.800000*%
%ADD15C,1.400000*%
%ADD16C,2.400000*%
G04 APERTURE END LIST*
D10*
X47077414Y-94780014D03*
D11*
X41493512Y-97654043D03*
D10*
X37229336Y-93043533D03*
X42518036Y-91843677D03*
D12*
X46909955Y-98609108D03*
X36077069Y-96698978D03*
D10*
X122885464Y-92088100D03*
D11*
X128778000Y-89916000D03*
D10*
X132448511Y-95011817D03*
X127053007Y-95558198D03*
D12*
X123518324Y-88307956D03*
X134037676Y-91524044D03*
D10*
X151016100Y-89966536D03*
D11*
X148844000Y-84074000D03*
D10*
X153939817Y-80403489D03*
X154486198Y-85798993D03*
D12*
X147235956Y-89333676D03*
X150452044Y-78814324D03*
D10*
X127865464Y-75832100D03*
D11*
X133758000Y-73660000D03*
D10*
X137428511Y-78755817D03*
X132033007Y-79302198D03*
D12*
X128498324Y-72051956D03*
X139017676Y-75268044D03*
D13*
X36068000Y-74422000D03*
X35560000Y-52832000D03*
X38862000Y-52832000D03*
X36068000Y-71882000D03*
D10*
X72260000Y-75989000D03*
D11*
X77260000Y-72189000D03*
D10*
X82260000Y-75989000D03*
X77260000Y-78089000D03*
D12*
X71760000Y-72189000D03*
X82760000Y-72189000D03*
D10*
X54260000Y-61864000D03*
D11*
X59260000Y-58064000D03*
D10*
X64260000Y-61864000D03*
X59260000Y-63964000D03*
D12*
X53760000Y-58064000D03*
X64760000Y-58064000D03*
D10*
X54260000Y-78864000D03*
D11*
X59260000Y-75064000D03*
D10*
X64260000Y-78864000D03*
X59260000Y-80964000D03*
D12*
X53760000Y-75064000D03*
X64760000Y-75064000D03*
D10*
X111703907Y-42015274D03*
D11*
X117073725Y-38758733D03*
D10*
X121649126Y-43060559D03*
X116457007Y-44626412D03*
D12*
X111603855Y-38183826D03*
X122543595Y-39333640D03*
D10*
X65543142Y-99357577D03*
D11*
X59730000Y-101734000D03*
D10*
X55883883Y-96769387D03*
X61257032Y-96035038D03*
D12*
X65042592Y-103157505D03*
X54417408Y-100310495D03*
D10*
X90260000Y-69614000D03*
D11*
X95260000Y-65814000D03*
D10*
X100260000Y-69614000D03*
X95260000Y-71714000D03*
D12*
X89760000Y-65814000D03*
X100760000Y-65814000D03*
D10*
X108229488Y-75833928D03*
D11*
X113599306Y-72577387D03*
D10*
X118174707Y-76879213D03*
X112982588Y-78445066D03*
D12*
X108129436Y-72002480D03*
X119069176Y-73152294D03*
D10*
X72260000Y-58984000D03*
D11*
X77260000Y-55184000D03*
D10*
X82260000Y-58984000D03*
X77260000Y-61084000D03*
D12*
X71760000Y-55184000D03*
X82760000Y-55184000D03*
D10*
X90260000Y-52614000D03*
D11*
X95260000Y-48814000D03*
D10*
X100260000Y-52614000D03*
X95260000Y-54714000D03*
D12*
X89760000Y-48814000D03*
X100760000Y-48814000D03*
D10*
X109926983Y-58922160D03*
D11*
X115296801Y-55665619D03*
D10*
X119872202Y-59967445D03*
X114680083Y-61533298D03*
D12*
X109826931Y-55090712D03*
X120766671Y-56240526D03*
D10*
X72260000Y-41984000D03*
D11*
X77260000Y-38184000D03*
D10*
X82260000Y-41984000D03*
X77260000Y-44084000D03*
D12*
X71760000Y-38184000D03*
X82760000Y-38184000D03*
D10*
X90260000Y-35624000D03*
D11*
X95260000Y-31824000D03*
D10*
X100260000Y-35624000D03*
X95260000Y-37724000D03*
D12*
X89760000Y-31824000D03*
X100760000Y-31824000D03*
D10*
X54260000Y-44864000D03*
D11*
X59260000Y-41064000D03*
D10*
X64260000Y-44864000D03*
X59260000Y-46964000D03*
D12*
X53760000Y-41064000D03*
X64760000Y-41064000D03*
D14*
X86360000Y-28956000D03*
X67310000Y-48006000D03*
X86360000Y-67056000D03*
X105410000Y-48006000D03*
G36*
G01*
X77594000Y-29370000D02*
X77594000Y-28120000D01*
G75*
G02*
X77794000Y-27920000I200000J0D01*
G01*
X78694000Y-27920000D01*
G75*
G02*
X78894000Y-28120000I0J-200000D01*
G01*
X78894000Y-29370000D01*
G75*
G02*
X78694000Y-29570000I-200000J0D01*
G01*
X77794000Y-29570000D01*
G75*
G02*
X77594000Y-29370000I0J200000D01*
G01*
G37*
G36*
G01*
X76094000Y-29370000D02*
X76094000Y-28120000D01*
G75*
G02*
X76294000Y-27920000I200000J0D01*
G01*
X77194000Y-27920000D01*
G75*
G02*
X77394000Y-28120000I0J-200000D01*
G01*
X77394000Y-29370000D01*
G75*
G02*
X77194000Y-29570000I-200000J0D01*
G01*
X76294000Y-29570000D01*
G75*
G02*
X76094000Y-29370000I0J200000D01*
G01*
G37*
G36*
G01*
X80594000Y-29370000D02*
X80594000Y-28120000D01*
G75*
G02*
X80794000Y-27920000I200000J0D01*
G01*
X81694000Y-27920000D01*
G75*
G02*
X81894000Y-28120000I0J-200000D01*
G01*
X81894000Y-29370000D01*
G75*
G02*
X81694000Y-29570000I-200000J0D01*
G01*
X80794000Y-29570000D01*
G75*
G02*
X80594000Y-29370000I0J200000D01*
G01*
G37*
G36*
G01*
X82044000Y-26020000D02*
X82044000Y-25120000D01*
G75*
G02*
X82244000Y-24920000I200000J0D01*
G01*
X83144000Y-24920000D01*
G75*
G02*
X83344000Y-25120000I0J-200000D01*
G01*
X83344000Y-26020000D01*
G75*
G02*
X83144000Y-26220000I-200000J0D01*
G01*
X82244000Y-26220000D01*
G75*
G02*
X82044000Y-26020000I0J200000D01*
G01*
G37*
G36*
G01*
X82044000Y-28220000D02*
X82044000Y-27320000D01*
G75*
G02*
X82244000Y-27120000I200000J0D01*
G01*
X83144000Y-27120000D01*
G75*
G02*
X83344000Y-27320000I0J-200000D01*
G01*
X83344000Y-28220000D01*
G75*
G02*
X83144000Y-28420000I-200000J0D01*
G01*
X82244000Y-28420000D01*
G75*
G02*
X82044000Y-28220000I0J200000D01*
G01*
G37*
G36*
G01*
X74644000Y-28220000D02*
X74644000Y-27320000D01*
G75*
G02*
X74844000Y-27120000I200000J0D01*
G01*
X75744000Y-27120000D01*
G75*
G02*
X75944000Y-27320000I0J-200000D01*
G01*
X75944000Y-28220000D01*
G75*
G02*
X75744000Y-28420000I-200000J0D01*
G01*
X74844000Y-28420000D01*
G75*
G02*
X74644000Y-28220000I0J200000D01*
G01*
G37*
G36*
G01*
X74644000Y-26020000D02*
X74644000Y-25120000D01*
G75*
G02*
X74844000Y-24920000I200000J0D01*
G01*
X75744000Y-24920000D01*
G75*
G02*
X75944000Y-25120000I0J-200000D01*
G01*
X75944000Y-26020000D01*
G75*
G02*
X75744000Y-26220000I-200000J0D01*
G01*
X74844000Y-26220000D01*
G75*
G02*
X74644000Y-26020000I0J200000D01*
G01*
G37*
D15*
X80494000Y-26670000D03*
X77494000Y-26670000D03*
D16*
X66698000Y-29718000D03*
X60198000Y-29718000D03*
M02*
