G04 #@! TF.GenerationSoftware,KiCad,Pcbnew,5.1.10*
G04 #@! TF.CreationDate,2021-09-20T14:55:35+01:00*
G04 #@! TF.ProjectId,parergon,70617265-7267-46f6-9e2e-6b696361645f,0.1*
G04 #@! TF.SameCoordinates,Original*
G04 #@! TF.FileFunction,Profile,NP*
%FSLAX46Y46*%
G04 Gerber Fmt 4.6, Leading zero omitted, Abs format (unit mm)*
G04 Created by KiCad (PCBNEW 5.1.10) date 2021-09-20 14:55:35*
%MOMM*%
%LPD*%
G01*
G04 APERTURE LIST*
G04 #@! TA.AperFunction,Profile*
%ADD10C,0.150000*%
G04 #@! TD*
G04 APERTURE END LIST*
D10*
X107980005Y-24310753D02*
X124714000Y-29972000D01*
X107980005Y-24310753D02*
G75*
G03*
X99060000Y-22606000I-8666005J-21155247D01*
G01*
X66818368Y-112363873D02*
X67310000Y-112245889D01*
X67310000Y-112245889D02*
G75*
G02*
X133690041Y-103402166I49180445J-115600560D01*
G01*
X32408164Y-51046473D02*
G75*
G03*
X31058320Y-52324000I-79844J-1267527D01*
G01*
X32408164Y-51046473D02*
X41656141Y-51049771D01*
X66818368Y-112363874D02*
G75*
G02*
X62738000Y-112268000I-1794368J10509874D01*
G01*
X62738000Y-112268000D02*
X34036000Y-105918000D01*
X31004186Y-101600055D02*
G75*
G03*
X34036000Y-105918000I4568168J-15850D01*
G01*
X89154528Y-22581567D02*
G75*
G03*
X80226393Y-23495399I-786449J-36387223D01*
G01*
X89154528Y-22581567D02*
X99060000Y-22606000D01*
X144526000Y-104394000D02*
X133690041Y-103402166D01*
X41656141Y-51049771D02*
G75*
G03*
X49530000Y-43578151I253859J7617161D01*
G01*
X53844201Y-28677429D02*
G75*
G03*
X49530000Y-34290000I783306J-5066481D01*
G01*
X144526000Y-104394000D02*
G75*
G03*
X152890532Y-99221726I482629J8569141D01*
G01*
X130556001Y-34290001D02*
X156817493Y-69628875D01*
X158237872Y-82268036D02*
G75*
G03*
X156817493Y-69628875I-14451991J4775288D01*
G01*
X49530000Y-43578151D02*
X49530000Y-34290000D01*
X130556001Y-34290001D02*
G75*
G03*
X124714000Y-29972000I-9398001J-6603999D01*
G01*
X158237872Y-82268036D02*
X152890532Y-99221726D01*
X31004187Y-101600055D02*
X31058320Y-52324000D01*
X53844201Y-28677430D02*
X80226393Y-23495399D01*
M02*
