M48
; DRILL file {KiCad 5.1.10} date Mon Sep 20 14:55:39 2021
; FORMAT={-:-/ absolute / inch / decimal}
; #@! TF.CreationDate,2021-09-20T14:55:39+01:00
; #@! TF.GenerationSoftware,Kicad,Pcbnew,5.1.10
; #@! TF.FileFunction,Plated,1,2,PTH
FMAT,2
INCH
T1C0.0157
T2C0.0320
T3C0.0500
T4C0.0512
T5C0.0866
%
G90
G05
T1
X3.1Y-1.2
X3.11Y-1.07
T2
X1.3004Y-2.17
X1.3004Y-2.27
X1.3004Y-2.37
X1.3004Y-2.47
X1.3004Y-2.57
X1.3004Y-2.67
X1.3004Y-2.77
X1.3004Y-2.87
X1.3004Y-2.97
X1.3004Y-3.07
X1.3004Y-3.17
X1.3004Y-3.27
X1.4Y-2.08
X1.42Y-2.83
X1.42Y-2.93
X1.53Y-2.08
X1.8997Y-2.17
X1.8997Y-2.27
X1.8997Y-2.37
X1.8997Y-2.47
X1.8997Y-2.57
X1.8997Y-2.67
X1.8997Y-2.77
X1.8997Y-2.87
X1.8997Y-2.97
X1.8997Y-3.07
X1.8997Y-3.17
X1.8997Y-3.27
T3
X1.4657Y-3.6631
X1.6739Y-3.6159
X1.8534Y-3.7315
X2.1362Y-1.7663
X2.1362Y-2.4356
X2.1362Y-3.1049
X2.2002Y-3.8098
X2.3331Y-1.849
X2.3331Y-2.5183
X2.3331Y-3.1876
X2.4117Y-3.7809
X2.5299Y-1.7663
X2.5299Y-2.4356
X2.5299Y-3.1049
X2.5804Y-3.9117
X2.8449Y-1.6529
X2.8449Y-2.3222
X2.8449Y-2.9917
X3.0417Y-1.7356
X3.0417Y-2.4049
X3.0417Y-3.0744
X3.2386Y-1.6529
X3.2386Y-2.3222
X3.2386Y-2.9917
X3.5535Y-1.4025
X3.5535Y-2.0714
X3.5535Y-2.7407
X3.7504Y-1.4852
X3.7504Y-2.1541
X3.7504Y-2.8234
X3.9472Y-1.4025
X3.9472Y-2.0714
X3.9472Y-2.7407
X4.261Y-2.9856
X4.3278Y-2.3198
X4.3978Y-1.6541
X4.4481Y-3.0884
X4.515Y-2.4226
X4.5849Y-1.7569
X4.6525Y-3.0267
X4.7194Y-2.3609
X4.7893Y-1.6953
X4.838Y-3.6255
X5.0021Y-3.7621
X5.0341Y-2.9855
X5.1981Y-3.1221
X5.2145Y-3.7406
X5.4106Y-3.1006
X5.9455Y-3.542
X6.0606Y-3.1655
X6.0821Y-3.3779
T4
X2.37Y-1.17
X2.6259Y-1.17
T5
X2.65Y-1.89
X3.4Y-1.14
X3.4Y-2.64
X4.15Y-1.89
T0
M30
