<?xml version="1.0" standalone="no"?>
 <!DOCTYPE svg PUBLIC "-//W3C//DTD SVG 1.1//EN" 
 "http://www.w3.org/Graphics/SVG/1.1/DTD/svg11.dtd"> 
<svg
  xmlns:svg="http://www.w3.org/2000/svg"
  xmlns="http://www.w3.org/2000/svg"
  xmlns:xlink="http://www.w3.org/1999/xlink"
  version="1.1"
  width="12.230100cm" height="8.801100cm" viewBox="0 0 48150 34650">
<title>SVG Picture created as hypergolic_half_plate-Edge_Cuts.svg date 2021/08/13 15:46:07 </title>
  <desc>Picture generated by PCBNEW </desc>
<g style="fill:#000000; fill-opacity:1;stroke:#000000; stroke-opacity:1;
stroke-linecap:round; stroke-linejoin:round;"
 transform="translate(0 0) scale(1 1)">
</g>
<g style="fill:#000000; fill-opacity:0.0; 
stroke:#000000; stroke-width:-0.000393701; stroke-opacity:1; 
stroke-linecap:round; stroke-linejoin:round;">
</g>
<g style="fill:#C2C200; fill-opacity:0.0; 
stroke:#C2C200; stroke-width:-0.000393701; stroke-opacity:1; 
stroke-linecap:round; stroke-linejoin:round;">
</g>
<g style="fill:#C2C200; fill-opacity:0.0; 
stroke:#C2C200; stroke-width:59.0551; stroke-opacity:1; 
stroke-linecap:round; stroke-linejoin:round;">
<circle cx="21801.9" cy="2541.85" r="538.517" /> 
<circle cx="14463.3" cy="10041.9" r="538.517" /> 
<circle cx="29301.9" cy="10041.9" r="538.517" /> 
<circle cx="21801.9" cy="17541.9" r="538.517" /> 
<path d="M17001 2941
L20801 2941
" />
<path d="M20801 2941
L20801 141
" />
<path d="M17001 2941
L17001 841
" />
<path d="M10901 2041
L9000 2432
" />
<path d="M14601 1341
L17001 841
" />
<path d="M10901 3641
L14601 3641
" />
<path d="M14601 3641
L14601 1341
" />
<path d="M10901 3641
L10901 2041
" />
<path d="M14801 33541
L4127 34335
" />
<path d="M24198 33004
L14801 33541
" />
<path d="M2501.86 32941.9 A1804.87 1804.87 0.0 0 0 4127.91 34335.8" />
<path d="M22902.1 32.8734 A14328.4 14328.4 0.0 0 0 20801.9 141.851" />
<path d="M29458.7 32834.7 A48519.3 48519.3 0.0 0 0 24198.6 33004.6" />
<path d="M2501 32941
L29 23841
" />
<path d="M22902 32
L34701 41
" />
<path d="M38098 33100
L29458 32834
" />
<path d="M9000.36 2432.18 A2018.38 2018.38 0.0 0 0 7301.86 4641.85" />
<path d="M38098.3 33100.3 A3508.59 3508.59 0.0 0 0 40901.9 31241.9" />
<path d="M38031 1514
L46169 9901
" />
<path d="M46701.9 12141.9 A2194.38 2194.38 0.0 0 0 46169.6 9901.43" />
<path d="M7301 22340
L7301 4641
" />
<path d="M560.978 22338.9 A500.015 500.015 0.0 0 0 29.5435 22841.9" />
<path d="M38031.6 1514.82 A4500 4500 0.0 0 0 34701.9 41.8504" />
<path d="M560 22338
L7301 22340
" />
<path d="M46701 12141
L40901 31241
" />
<path d="M29 23841
L29 22841
" />
<path d="M8226 30560
L2902 31987
" />
<path d="M6800 25236
L1476 26663
" />
<path d="M6800 25236
L8226 30560
" />
<path d="M1476 26663
L2902 31987
" />
<path d="M15463 22318
L15463 16806
" />
<path d="M20975 22318
L20975 16806
" />
<path d="M20975 22318
L15463 22318
" />
<path d="M20975 16806
L15463 16806
" />
<path d="M8376 16757
L8376 11245
" />
<path d="M13888 16757
L13888 11245
" />
<path d="M13888 16757
L8376 16757
" />
<path d="M13888 11245
L8376 11245
" />
<path d="M8376 23450
L8376 17938
" />
<path d="M13888 23450
L13888 17938
" />
<path d="M13888 23450
L8376 23450
" />
<path d="M13888 17938
L8376 17938
" />
<path d="M30864 8460
L31441 2978
" />
<path d="M36346 9036
L36922 3554
" />
<path d="M36346 9036
L30864 8460
" />
<path d="M36922 3554
L31441 2978
" />
<path d="M10199 32215
L9814 26717
" />
<path d="M15697 31831
L15313 26332
" />
<path d="M15697 31831
L10199 32215
" />
<path d="M15313 26332
L9814 26717
" />
<path d="M22549 19808
L22549 14296
" />
<path d="M28061 19808
L28061 14296
" />
<path d="M28061 19808
L22549 19808
" />
<path d="M28061 14296
L22549 14296
" />
<path d="M29497 21774
L30073 16293
" />
<path d="M34978 22350
L35554 16869
" />
<path d="M34978 22350
L29497 21774
" />
<path d="M35554 16869
L30073 16293
" />
<path d="M15463 15623
L15463 10111
" />
<path d="M20975 15623
L20975 10111
" />
<path d="M20975 15623
L15463 15623
" />
<path d="M20975 10111
L15463 10111
" />
<path d="M22549 13115
L22549 7604
" />
<path d="M28061 13115
L28061 7604
" />
<path d="M28061 13115
L22549 13115
" />
<path d="M28061 7604
L22549 7604
" />
<path d="M30165 15116
L30741 9634
" />
<path d="M35647 15692
L36223 10211
" />
<path d="M35647 15692
L30165 15116
" />
<path d="M36223 10211
L30741 9634
" />
<path d="M15463 8930
L15463 3419
" />
<path d="M20975 8930
L20975 3419
" />
<path d="M20975 8930
L15463 8930
" />
<path d="M20975 3419
L15463 3419
" />
<path d="M22549 6426
L22549 915
" />
<path d="M28061 6426
L28061 915
" />
<path d="M28061 6426
L22549 6426
" />
<path d="M28061 915
L22549 915
" />
<path d="M34710 28977
L36322 23706
" />
<path d="M39981 30588
L41593 25317
" />
<path d="M39981 30588
L34710 28977
" />
<path d="M41593 25317
L36322 23706
" />
<path d="M36668 22574
L38279 17303
" />
<path d="M41938 24186
L43550 18915
" />
<path d="M41938 24186
L36668 22574
" />
<path d="M43550 18915
L38279 17303
" />
<path d="M38624 16174
L40236 10903
" />
<path d="M43895 17785
L45507 12514
" />
<path d="M43895 17785
L38624 16174
" />
<path d="M45507 12514
L40236 10903
" />
<path d="M8376 10064
L8376 4552
" />
<path d="M13888 10064
L13888 4552
" />
<path d="M13888 10064
L8376 10064
" />
<path d="M13888 4552
L8376 4552
" />
<g >
</g>
<g >
</g>
<g >
</g>
<g >
</g>
<g >
</g>
<g >
</g>
<g >
</g>
<g >
</g>
<g >
</g>
<g >
</g>
<g >
</g>
<g >
</g>
<g >
</g>
<g >
</g>
<g >
</g>
<g >
</g>
<g >
</g>
<g >
</g>
</g> 
</svg>
