<?xml version="1.0" standalone="no"?>
 <!DOCTYPE svg PUBLIC "-//W3C//DTD SVG 1.1//EN" 
 "http://www.w3.org/Graphics/SVG/1.1/DTD/svg11.dtd"> 
<svg
  xmlns:svg="http://www.w3.org/2000/svg"
  xmlns="http://www.w3.org/2000/svg"
  xmlns:xlink="http://www.w3.org/1999/xlink"
  version="1.1"
  width="12.735560cm" height="9.568180cm" viewBox="0 0 127355600 95681800">
<title>SVG Picture created as hypergolic_high_plate-Edge_Cuts.svg date 2022/01/06 16:17:40 </title>
  <desc>Picture generated by PCBNEW </desc>
<g style="fill:#000000; fill-opacity:1.000000;stroke:#000000; stroke-opacity:1.000000;
stroke-linecap:round; stroke-linejoin:round;"
 transform="translate(0 0) scale(1 1)">
</g>
<g style="fill:#000000; fill-opacity:0.0; 
stroke:#000000; stroke-width:0.000000; stroke-opacity:1; 
stroke-linecap:round; stroke-linejoin:round;">
</g>
<g style="fill:#C2C200; fill-opacity:0.0; 
stroke:#C2C200; stroke-width:0.000000; stroke-opacity:1; 
stroke-linecap:round; stroke-linejoin:round;">
</g>
<g style="fill:#C2C200; fill-opacity:0.0; 
stroke:#C2C200; stroke-width:150000.000000; stroke-opacity:1; 
stroke-linecap:round; stroke-linejoin:round;">
<path d="M20664570 70138345
L1764570 70138345
" />
<path d="M20781273 11323931
L20664570 70138345
" />
<path d="M127014570.556340 38838345.177098 A5694906.000000 5694906.000000 0.0 0 0 126414570.420416 34088344.736722" />
<path d="M104664569.924677 90188345.268692 A7430201.000000 7430201.000000 0.0 0 0 113705623.219206 85423574.074454" />
<path d="M25073473.841747 6179359.976415 A5068428.000000 5068428.000000 0.0 0 0 20781272.681975 11323931.008515" />
<path d="M77914570 88345
L60383801 83498
" />
<path d="M1780384.094345 85932966.975707 A4243014.000000 4243014.000000 0.0 0 0 5380383.051508 90032966.663486" />
<path d="M104664570.055431 90188344.785667 A100814668.000000 100814668.000000 0.0 0 0 38847966.015478 95502345.035207" />
<path d="M126414569.351741 34088345.418170 A78569681.000000 78569681.000000 0.0 0 0 77914569.904584 88345.417010" />
<path d="M1764570 70138345
L1780383 85932967
" />
<path d="M60383801.003295 83497.847529 A36395752.000000 36395752.000000 0.0 0 0 51455665.963841 997329.842455" />
<path d="M5380383 90032967
L36733980 95538345
" />
<path d="M51455666 997330
L25073474 6179361
" />
<path d="M36733979.925536 95538345.417910 A5501497.000000 5501497.000000 0.0 0 0 38847966.101366 95502345.474681" />
<path d="M113705623 85423574
L127014570 38838345
" />
<path d="M123322863 37738975
L109865200 33880052
" />
<path d="M119463940 51196638
L106006277 47337715
" />
<path d="M119463940 51196638
L123322863 37738975
" />
<path d="M106006277 47337715
L109865200 33880052
" />
<path d="M97871187 14689975
L83905290 13713384
" />
<path d="M96894596 28655872
L82928699 27679281
" />
<path d="M96894596 28655872
L97871187 14689975
" />
<path d="M82928699 27679281
L83905290 13713384
" />
<path d="M75391980 2790345
L61391980 2790345
" />
<path d="M75391980 16790345
L61391980 16790345
" />
<path d="M75391980 16790345
L75391980 2790345
" />
<path d="M61391980 16790345
L61391980 2790345
" />
<path d="M56391980 9650345
L42391980 9650345
" />
<path d="M56391980 23650345
L42391980 23650345
" />
<path d="M56391980 23650345
L56391980 9650345
" />
<path d="M42391980 23650345
L42391980 9650345
" />
<path d="M37391980 12530345
L23391980 12530345
" />
<path d="M37391980 26530345
L23391980 26530345
" />
<path d="M37391980 26530345
L37391980 12530345
" />
<path d="M23391980 26530345
L23391980 12530345
" />
<path d="M118072863 56038975
L104615200 52180052
" />
<path d="M114213940 69496638
L100756277 65637715
" />
<path d="M114213940 69496638
L118072863 56038975
" />
<path d="M100756277 65637715
L104615200 52180052
" />
<path d="M96545814 33643692
L82579917 32667101
" />
<path d="M95569223 47609589
L81603326 46632998
" />
<path d="M95569223 47609589
L96545814 33643692
" />
<path d="M81603326 46632998
L82579917 32667101
" />
<path d="M75391980 21780345
L61391980 21780345
" />
<path d="M75391980 35780345
L61391980 35780345
" />
<path d="M75391980 35780345
L75391980 21780345
" />
<path d="M61391980 35780345
L61391980 21780345
" />
<path d="M56391980 28650345
L42391980 28650345
" />
<path d="M56391980 42650345
L42391980 42650345
" />
<path d="M56391980 42650345
L56391980 28650345
" />
<path d="M42391980 42650345
L42391980 28650345
" />
<path d="M37391980 31530345
L23391980 31530345
" />
<path d="M37391980 45530345
L23391980 45530345
" />
<path d="M37391980 45530345
L37391980 31530345
" />
<path d="M23391980 45530345
L23391980 31530345
" />
<path d="M112841815 74335425
L99384152 70476502
" />
<path d="M108982892 87793088
L95525229 83934165
" />
<path d="M108982892 87793088
L112841815 74335425
" />
<path d="M95525229 83934165
L99384152 70476502
" />
<path d="M95219293 52694950
L81253396 51718359
" />
<path d="M94242702 66660847
L80276805 65684256
" />
<path d="M94242702 66660847
L95219293 52694950
" />
<path d="M80276805 65684256
L81253396 51718359
" />
<path d="M75391980 40780345
L61391980 40780345
" />
<path d="M75391980 54780345
L61391980 54780345
" />
<path d="M75391980 54780345
L75391980 40780345
" />
<path d="M61391980 54780345
L61391980 40780345
" />
<path d="M56391980 47655345
L42391980 47655345
" />
<path d="M56391980 61655345
L42391980 61655345
" />
<path d="M56391980 61655345
L56391980 47655345
" />
<path d="M42391980 61655345
L42391980 47655345
" />
<path d="M37391980 50530345
L23391980 50530345
" />
<path d="M37391980 64530345
L23391980 64530345
" />
<path d="M37391980 64530345
L37391980 50530345
" />
<path d="M23391980 64530345
L23391980 50530345
" />
<path d="M39123762 79110228
L25336453 76679153
" />
<path d="M36692687 92897537
L22905378 90466462
" />
<path d="M36692687 92897537
L39123762 79110228
" />
<path d="M22905378 90466462
L25336453 76679153
" />
<path d="M20343172 75810228
L6555863 73379153
" />
<path d="M17912097 89597537
L4124788 87166462
" />
<path d="M17912097 89597537
L20343172 75810228
" />
<path d="M4124788 87166462
L6555863 73379153
" />
<g >
</g>
<g >
</g>
<g >
</g>
<g >
</g>
<g >
</g>
<g >
</g>
<g >
</g>
<g >
</g>
<g >
</g>
<g >
</g>
<g >
</g>
<g >
</g>
<g >
</g>
<g >
</g>
<g >
</g>
<g >
</g>
<g >
</g>
<g >
</g>
<g >
</g>
<g >
</g>
</g> 
</svg>
