M48
; DRILL file {KiCad 5.1.10} date Mon Jun  7 09:44:08 2021
; FORMAT={-:-/ absolute / inch / decimal}
; #@! TF.CreationDate,2021-06-07T09:44:08+01:00
; #@! TF.GenerationSoftware,Kicad,Pcbnew,5.1.10
; #@! TF.FileFunction,NonPlated,1,2,NPTH
FMAT,2
INCH
T1C0.0354
T2C0.0390
T3C0.0670
T4C0.1350
%
G90
G05
T1
X3.7309Y-0.69
X3.8491Y-0.69
T2
X1.2347Y-1.7673
X1.408Y-2.4138
X1.5812Y-3.0605
X1.6318Y-1.6609
X1.805Y-2.3074
X1.9783Y-2.9541
X2.1175Y-0.9746
X2.1642Y-1.6423
X2.2109Y-2.3102
X2.5275Y-0.946
X2.5742Y-1.6136
X2.6209Y-2.2815
X2.9441Y-0.7276
X2.9441Y-1.3965
X2.9441Y-2.0657
X3.3551Y-0.7276
X3.3551Y-1.3965
X3.3551Y-2.0657
X3.6528Y-0.978
X3.6528Y-1.6472
X3.6528Y-2.3167
X4.0638Y-0.978
X4.0638Y-1.6472
X4.0638Y-2.3167
X4.3103Y-3.4404
X4.3614Y-1.0913
X4.3614Y-1.7606
X4.3614Y-2.4299
X4.7138Y-3.362
X4.7724Y-1.0913
X4.7724Y-1.7606
X4.7724Y-2.4299
X5.1081Y-3.3246
X5.5191Y-3.3246
T3
X1.2669Y-1.9299
X1.4401Y-2.5764
X1.6134Y-3.223
X1.6852Y-1.8178
X1.8584Y-2.4643
X2.0317Y-3.111
X2.1181Y-1.1404
X2.1647Y-1.808
X2.2114Y-2.4759
X2.5501Y-1.1102
X2.5968Y-1.7778
X2.6435Y-2.4457
X2.9331Y-0.8929
X2.9331Y-1.5618
X2.9331Y-2.2311
X3.3661Y-0.8929
X3.3661Y-1.5618
X3.3661Y-2.2311
X3.6417Y-1.1433
X3.6417Y-1.8126
X3.6417Y-2.4821
X4.0748Y-1.1433
X4.0748Y-1.8126
X4.0748Y-2.4821
X4.3311Y-3.6049
X4.3504Y-1.2567
X4.3504Y-1.926
X4.3504Y-2.5953
X4.7562Y-3.5222
X4.7835Y-1.2567
X4.7835Y-1.926
X4.7835Y-2.5953
X5.0971Y-3.49
X5.5302Y-3.49
T4
X1.476Y-1.8738
X1.6493Y-2.5203
X1.8225Y-3.167
X2.3341Y-1.1253
X2.3808Y-1.7929
X2.4275Y-2.4608
X3.1496Y-0.8929
X3.1496Y-1.5618
X3.1496Y-2.2311
X3.8583Y-1.1433
X3.8583Y-1.8126
X3.8583Y-2.4821
X4.5436Y-3.5635
X4.5669Y-1.2567
X4.5669Y-1.926
X4.5669Y-2.5953
X5.3136Y-3.49
T0
M30
