M48
; DRILL file {KiCad 5.1.10} date Mon Jun  7 09:44:08 2021
; FORMAT={-:-/ absolute / inch / decimal}
; #@! TF.CreationDate,2021-06-07T09:44:08+01:00
; #@! TF.GenerationSoftware,Kicad,Pcbnew,5.1.10
; #@! TF.FileFunction,Plated,1,2,PTH
FMAT,2
INCH
T1C0.0157
T2C0.0320
T3C0.0500
T4C0.0512
T5C0.0866
%
G90
G05
T1
X3.9692Y-0.8808
X4.0236Y-0.8464
X4.77Y-2.89
X4.84Y-2.04
X4.88Y-1.97
X5.1328Y-2.0772
X5.1823Y-3.1823
X5.23Y-3.1
X5.28Y-3.05
X5.34Y-3.01
T2
X5.0343Y-1.92
X5.0343Y-2.02
X5.0343Y-2.12
X5.0343Y-2.22
X5.0343Y-2.32
X5.0343Y-2.42
X5.0343Y-2.52
X5.0343Y-2.62
X5.0343Y-2.72
X5.0343Y-2.82
X5.0343Y-2.92
X5.0343Y-3.02
X5.27Y-1.83
X5.404Y-1.83
X5.54Y-2.83
X5.54Y-2.93
X5.6335Y-1.92
X5.6335Y-2.02
X5.6335Y-2.12
X5.6335Y-2.22
X5.6335Y-2.32
X5.6335Y-2.42
X5.6335Y-2.52
X5.6335Y-2.62
X5.6335Y-2.72
X5.6335Y-2.82
X5.6335Y-2.92
X5.6335Y-3.02
T3
X1.3246Y-2.0693
X1.4978Y-2.7158
X1.5362Y-2.0982
X1.6711Y-3.3625
X1.7049Y-1.9674
X1.7094Y-2.7447
X1.8781Y-2.6139
X1.8827Y-3.3914
X2.0514Y-3.2606
X2.1481Y-1.2882
X2.1948Y-1.9559
X2.2415Y-2.6237
X2.3503Y-1.357
X2.397Y-2.0246
X2.4437Y-2.6925
X2.5409Y-1.2608
X2.5876Y-1.9284
X2.6343Y-2.5963
X2.9528Y-1.0425
X2.9528Y-1.7114
X2.9528Y-2.3807
X3.1496Y-1.1252
X3.1496Y-1.7941
X3.1496Y-2.4634
X3.3465Y-1.0425
X3.3465Y-1.7114
X3.3465Y-2.3807
X3.6614Y-1.2929
X3.6614Y-1.9622
X3.6614Y-2.6317
X3.8583Y-1.3756
X3.8583Y-2.0449
X3.8583Y-2.7144
X4.0551Y-1.2929
X4.0551Y-1.9622
X4.0551Y-2.6317
X4.3701Y-1.4063
X4.3701Y-2.0756
X4.3701Y-2.7449
X4.3789Y-3.748
X4.5669Y-1.489
X4.5669Y-2.1583
X4.5669Y-2.8276
X4.5879Y-3.7916
X4.7638Y-1.4063
X4.7638Y-2.0756
X4.7638Y-2.7449
X4.7654Y-3.6728
X5.1168Y-3.6396
X5.3136Y-3.7223
X5.5105Y-3.6396
T4
X4.2741Y-0.81
X4.53Y-0.81
T5
X2.75Y-1.49
X3.5Y-0.74
X3.5Y-2.24
T0
M30
