G04 #@! TF.GenerationSoftware,KiCad,Pcbnew,5.1.10*
G04 #@! TF.CreationDate,2021-08-06T05:26:48+01:00*
G04 #@! TF.ProjectId,hypergolic_right,68797065-7267-46f6-9c69-635f72696768,0.1*
G04 #@! TF.SameCoordinates,Original*
G04 #@! TF.FileFunction,Profile,NP*
%FSLAX46Y46*%
G04 Gerber Fmt 4.6, Leading zero omitted, Abs format (unit mm)*
G04 Created by KiCad (PCBNEW 5.1.10) date 2021-08-06 05:26:48*
%MOMM*%
%LPD*%
G01*
G04 APERTURE LIST*
G04 #@! TA.AperFunction,Profile*
%ADD10C,0.150000*%
G04 #@! TD*
G04 APERTURE END LIST*
D10*
X107952813Y-101121456D02*
X141548320Y-99060000D01*
X107952813Y-101121456D02*
G75*
G02*
X107442000Y-101092000I-159767J1673270D01*
G01*
X145796000Y-94488000D02*
G75*
G02*
X141548320Y-99060000I-4584381J0D01*
G01*
X97282000Y-99314000D02*
X107442000Y-101092000D01*
X86105472Y-13437567D02*
G75*
G02*
X95033607Y-14351399I786449J-36387223D01*
G01*
X97282000Y-99314000D02*
G75*
G03*
X69451546Y-96755903I-25122718J-120651279D01*
G01*
X145796000Y-94488000D02*
X145780000Y-78232000D01*
X86105472Y-13437567D02*
X56134000Y-13462000D01*
X46217948Y-97605617D02*
X69451546Y-96755903D01*
X133603859Y-44445771D02*
G75*
G02*
X125730000Y-36974151I-253859J7617161D01*
G01*
X121415799Y-19533429D02*
G75*
G02*
X125730000Y-25146000I-783306J-5066481D01*
G01*
X46217948Y-97605617D02*
G75*
G02*
X39628398Y-93878346I776450J9061271D01*
G01*
X47676485Y-17203350D02*
X27513839Y-38161320D01*
X26162000Y-43852000D02*
G75*
G02*
X27513839Y-38161320I5292299J1748704D01*
G01*
X125730000Y-36974151D02*
X125730000Y-25146000D01*
X144430156Y-44442473D02*
G75*
G02*
X145780000Y-45720000I79844J-1267527D01*
G01*
X47676485Y-17203350D02*
G75*
G02*
X56134000Y-13462000I8457515J-7688650D01*
G01*
X144430156Y-44442473D02*
X133603859Y-44445771D01*
X26162000Y-43852000D02*
X39628398Y-93878346D01*
X145780000Y-78232000D02*
X145780000Y-45720000D01*
X121415799Y-19533430D02*
X95033607Y-14351399D01*
M02*
